# This file uses centimeters as units for non-parametric coordinates.

mtllib lamp.mtl
g default
v -2.640386 4.511984 -1.156918
v -3.650046 4.958434 -1.614194
v -4.659705 5.404884 -1.156918
v -5.077920 5.589811 -0.052957
v -4.659705 5.404884 1.051004
v -3.650046 4.958434 1.508280
v -2.640386 4.511984 1.051005
v -2.222172 4.327058 -0.052957
v -1.965728 7.071562 -0.738835
v -2.593017 7.348936 -1.022935
v -3.220306 7.626311 -0.738835
v -3.480138 7.741203 -0.052957
v -3.220306 7.626311 0.632921
v -2.593017 7.348936 0.917021
v -1.965728 7.071562 0.632921
v -1.705895 6.956669 -0.052957
v -2.593017 7.348936 -0.052957
v -2.831845 4.596643 -0.947577
v -3.650046 4.958434 -1.318141
v -4.468247 5.320226 -0.947577
v -4.807157 5.470084 -0.052957
v -4.468247 5.320226 0.841663
v -3.650046 4.958434 1.212227
v -2.831846 4.596643 0.841664
v -2.492935 4.446784 -0.052957
v -2.386932 6.592820 -0.547216
v -2.838971 6.792703 -0.751946
v -2.838972 6.792702 -0.052956
v -3.291012 6.992585 -0.547216
v -3.478253 7.075379 -0.052957
v -3.291011 6.992585 0.441302
v -2.838971 6.792702 0.646032
v -2.386931 6.592819 0.441304
v -2.199690 6.510025 -0.052955
v 1.427572 0.015064 -0.147515
v 1.280058 0.015064 -0.208617
v 1.132543 0.015064 -0.147515
v 1.071440 0.015064 0.000000
v 1.132543 0.015064 0.147515
v 1.280058 0.015064 0.208617
v 1.427572 0.015064 0.147515
v 1.488675 0.015064 0.000000
v -3.103320 6.993365 -0.147515
v -2.955855 6.989514 -0.208617
v -2.808388 6.985667 -0.147515
v -2.747311 6.984081 0.000000
v -2.808385 6.985665 0.147515
v -2.955857 6.989516 0.208617
v -3.103319 6.993366 0.147515
v -3.164401 6.994952 -0.000000
v 1.280058 0.015064 0.000000
v -2.955857 6.989515 0.000000
v 0.216423 8.079646 0.208617
v 0.124272 7.964457 0.147515
v 0.086101 7.916743 0.000000
v 0.124272 7.964457 -0.147515
v 0.216423 8.079646 -0.208617
v 0.308574 8.194836 -0.147515
v 0.346745 8.242550 0.000000
v 0.308574 8.194836 0.147515
v 1.280058 6.646610 0.208617
v 1.132543 6.646610 0.147515
v 1.071440 6.646610 0.000000
v 1.132543 6.646610 -0.147515
v 1.280058 6.646610 -0.208617
v 1.427572 6.646610 -0.147515
v 1.488675 6.646610 0.000000
v 1.427572 6.646610 0.147515
v -1.829019 8.088847 0.208617
v -1.765440 7.955738 0.147515
v -1.739104 7.900601 0.000000
v -1.765440 7.955738 -0.147515
v -1.829019 8.088847 -0.208617
v -1.892598 8.221957 -0.147515
v -1.918932 8.277093 0.000000
v -1.892598 8.221957 0.147515
v 2.254201 -0.116752 -2.254201
v 0.000000 -0.116752 -3.187922
v -2.254201 -0.116752 -2.254201
v -3.187922 -0.116752 0.000000
v -2.254201 -0.116752 2.254201
v 0.000000 -0.116752 3.187922
v 2.254202 -0.116752 2.254202
v 3.187922 -0.116752 0.000000
v 2.254201 0.116752 -2.254201
v 0.000000 0.116752 -3.187922
v -2.254201 0.116752 -2.254201
v -3.187922 0.116752 0.000000
v -2.254201 0.116752 2.254201
v 0.000000 0.116752 3.187922
v 2.254202 0.116752 2.254202
v 3.187922 0.116752 0.000000
v 0.000000 -0.116752 0.000000
v 0.000000 0.116752 0.000000
vt 0.610485 0.045765
vt 0.500000 0.000000
vt 0.389515 0.045765
vt 0.343750 0.156250
vt 0.389515 0.266735
vt 0.500000 0.312500
vt 0.610485 0.266735
vt 0.656250 0.156250
vt 0.375000 0.312500
vt 0.406250 0.312500
vt 0.437500 0.312500
vt 0.468750 0.312500
vt 0.500000 0.312500
vt 0.531250 0.312500
vt 0.562500 0.312500
vt 0.593750 0.312500
vt 0.625000 0.312500
vt 0.375000 0.688440
vt 0.406250 0.688440
vt 0.437500 0.688440
vt 0.468750 0.688440
vt 0.500000 0.688440
vt 0.531250 0.688440
vt 0.562500 0.688440
vt 0.593750 0.688440
vt 0.625000 0.688440
vt 0.610485 0.733265
vt 0.500000 0.687500
vt 0.389515 0.733265
vt 0.343750 0.843750
vt 0.389515 0.954235
vt 0.500000 1.000000
vt 0.610485 0.954235
vt 0.656250 0.843750
vt 0.500000 0.150000
vt 0.500000 0.837500
vt 0.500000 0.000000
vt 0.610485 0.045765
vt 0.389515 0.045765
vt 0.343750 0.156250
vt 0.389515 0.266735
vt 0.500000 0.312500
vt 0.610485 0.266735
vt 0.656250 0.156250
vt 0.500000 0.000000
vt 0.610485 0.045765
vt 0.389515 0.045765
vt 0.343750 0.156250
vt 0.389515 0.266735
vt 0.500000 0.312500
vt 0.610485 0.266735
vt 0.656250 0.156250
vt 0.375000 0.312500
vt 0.406250 0.312500
vt 0.406250 0.492632
vt 0.375000 0.492632
vt 0.437500 0.312500
vt 0.437500 0.492632
vt 0.468750 0.312500
vt 0.468750 0.492632
vt 0.500000 0.312500
vt 0.500000 0.492632
vt 0.531250 0.312500
vt 0.531250 0.492632
vt 0.562500 0.312500
vt 0.562500 0.492632
vt 0.593750 0.312500
vt 0.593750 0.492632
vt 0.625000 0.312500
vt 0.625000 0.492632
vt 0.500000 0.000000
vt 0.610485 0.045765
vt 0.500000 0.150000
vt 0.389515 0.045765
vt 0.343750 0.156250
vt 0.389515 0.266735
vt 0.500000 0.312500
vt 0.610485 0.266735
vt 0.656250 0.156250
vt 0.610485 0.954235
vt 0.500000 1.000000
vt 0.500000 0.837500
vt 0.389515 0.954235
vt 0.343750 0.843750
vt 0.389515 0.733265
vt 0.500000 0.687500
vt 0.610485 0.733265
vt 0.656250 0.843750
vt 0.500000 0.554971
vt 0.531250 0.554971
vt 0.531250 0.623671
vt 0.500000 0.623671
vt 0.468750 0.554971
vt 0.468750 0.623671
vt 0.437500 0.554971
vt 0.437500 0.623671
vt 0.406250 0.554971
vt 0.406250 0.623671
vt 0.375000 0.554971
vt 0.375000 0.623671
vt 0.593750 0.554971
vt 0.625000 0.554971
vt 0.625000 0.623671
vt 0.593750 0.623671
vt 0.562500 0.554971
vt 0.562500 0.623671
vt 0.531250 0.688440
vt 0.500000 0.688440
vt 0.468750 0.688440
vt 0.437500 0.688440
vt 0.406250 0.688440
vt 0.375000 0.688440
vt 0.625000 0.688440
vt 0.593750 0.688440
vt 0.562500 0.688440
vt 0.375000 0.312500
vt 0.406250 0.312500
vt 0.406250 0.688440
vt 0.375000 0.688440
vt 0.437500 0.312500
vt 0.437500 0.688440
vt 0.468750 0.312500
vt 0.468750 0.688440
vt 0.500000 0.312500
vt 0.500000 0.688440
vt 0.531250 0.312500
vt 0.531250 0.688440
vt 0.562500 0.312500
vt 0.562500 0.688440
vt 0.593750 0.312500
vt 0.593750 0.688440
vt 0.625000 0.312500
vt 0.625000 0.688440
vt 0.500000 0.000000
vt 0.610485 0.045765
vt 0.500000 0.150000
vt 0.389515 0.045765
vt 0.343750 0.156250
vt 0.389515 0.266735
vt 0.500000 0.312500
vt 0.610485 0.266735
vt 0.656250 0.156250
vt 0.610485 0.954235
vt 0.500000 1.000000
vt 0.500000 0.837500
vt 0.389515 0.954235
vt 0.343750 0.843750
vt 0.389515 0.733265
vt 0.500000 0.687500
vt 0.610485 0.733265
vt 0.656250 0.843750
vn 0.692174 -0.169423 -0.701564
vn 0.050539 0.114294 -0.992161
vn 0.125837 0.284584 -0.950356
vn 0.740437 0.012821 -0.672003
vn -0.591097 0.398012 -0.701564
vn -0.488763 0.556348 -0.672003
vn -0.856871 0.515531 -0.000000
vn -0.743338 0.668916 -0.000000
vn -0.591097 0.398012 0.701564
vn -0.488763 0.556348 0.672003
vn 0.050538 0.114294 0.992161
vn 0.125837 0.284585 0.950356
vn 0.692174 -0.169423 0.701564
vn 0.740437 0.012822 0.672003
vn 0.957948 -0.286943 0.000000
vn 0.995013 -0.099746 0.000000
vn -0.140181 -0.317024 0.938001
vn -0.746791 -0.048794 0.663266
vn -0.404408 -0.914579 -0.000000
vn 0.466428 -0.585254 0.663267
vn 0.717695 -0.696358 -0.000000
vn 0.466428 -0.585254 -0.663267
vn -0.140180 -0.317024 -0.938001
vn -0.746791 -0.048794 -0.663267
vn -0.998057 0.062311 0.000000
vn 0.404408 0.914579 0.000000
vn -0.762026 -0.202120 0.615194
vn -0.199383 -0.450909 0.870016
vn 0.363261 -0.699698 0.615194
vn 0.596316 -0.802750 0.000000
vn 0.363261 -0.699698 -0.615194
vn -0.199382 -0.450910 -0.870016
vn -0.762026 -0.202120 -0.615194
vn -0.995081 -0.099069 0.000000
vn 0.707058 -0.011796 -0.707058
vn 0.000000 -0.011796 -0.999930
vn 0.029645 0.021246 -0.999335
vn 0.714017 0.097551 -0.693299
vn -0.707058 -0.011796 -0.707058
vn -0.682267 -0.087203 -0.725884
vn -0.999931 -0.011796 0.000000
vn -0.990171 -0.139865 0.000000
vn -0.707058 -0.011796 0.707058
vn -0.682267 -0.087203 0.725884
vn -0.000000 -0.011796 0.999931
vn 0.029645 0.021246 0.999335
vn 0.707058 -0.011796 0.707058
vn 0.714017 0.097551 0.693299
vn 0.999931 -0.011796 -0.000000
vn 0.992708 0.120541 -0.000000
vn 0.000000 -1.000000 0.000000
vn -0.629823 0.560739 -0.537489
vn -0.169575 0.107695 -0.979615
vn -0.026076 -0.999660 0.000003
vn 0.451947 -0.535536 -0.713404
vn 0.653031 -0.757331 -0.000007
vn 0.451946 -0.535534 0.713406
vn -0.169574 0.107693 0.979616
vn -0.629825 0.560741 0.537485
vn -0.742656 0.669673 -0.000001
vn -0.270705 -0.602273 0.750990
vn 0.035286 0.130680 0.990796
vn -0.035496 0.117454 0.992444
vn 0.219300 -0.657539 0.720798
vn -0.389576 -0.920994 0.000000
vn 0.309204 -0.950996 -0.000003
vn -0.270705 -0.602274 -0.750990
vn 0.219300 -0.657541 -0.720797
vn 0.035286 0.130680 -0.990796
vn -0.035496 0.117454 -0.992444
vn 0.336271 0.706948 -0.622210
vn -0.263862 0.748649 -0.608196
vn 0.451527 0.892258 0.000002
vn -0.338808 0.940855 0.000002
vn 0.336271 0.706948 0.622211
vn -0.263862 0.748649 0.608196
vn 0.135553 -0.981454 -0.135553
vn 0.000000 -0.981454 -0.191701
vn 0.000000 0.981454 -0.191701
vn 0.135553 0.981454 -0.135553
vn -0.135553 -0.981454 -0.135553
vn -0.135553 0.981454 -0.135553
vn -0.191701 -0.981453 0.000000
vn -0.191701 0.981453 0.000000
vn -0.135553 -0.981454 0.135553
vn -0.135553 0.981454 0.135553
vn -0.000000 -0.981453 0.191701
vn -0.000000 0.981453 0.191701
vn 0.135553 -0.981454 0.135553
vn 0.135553 0.981454 0.135553
vn 0.191701 -0.981454 -0.000000
vn 0.191701 0.981454 -0.000000
vn 0.000000 -1.000000 0.000000
vn 0.000000 1.000000 0.000000
s 1
g pCylinder4
usemtl initialShadingGroup
f 1/9/1 2/10/2 10/19/3 9/18/4
f 2/10/2 3/11/5 11/20/6 10/19/3
f 3/11/5 4/12/7 12/21/8 11/20/6
f 4/12/7 5/13/9 13/22/10 12/21/8
f 5/13/9 6/14/11 14/23/12 13/22/10
f 6/14/11 7/15/13 15/24/14 14/23/12
f 7/15/13 8/16/15 16/25/16 15/24/14
f 8/16/15 1/17/1 9/26/4 16/25/16
f 27/45/17 26/46/18 28/35/19
f 29/47/20 27/45/17 28/35/19
f 30/48/21 29/47/20 28/35/19
f 31/49/22 30/48/21 28/35/19
f 32/50/23 31/49/22 28/35/19
f 33/51/24 32/50/23 28/35/19
f 34/52/25 33/51/24 28/35/19
f 26/46/18 34/52/25 28/35/19
f 9/33/4 10/32/3 17/36/26
f 10/32/3 11/31/6 17/36/26
f 11/31/6 12/30/8 17/36/26
f 12/30/8 13/29/10 17/36/26
f 13/29/10 14/28/12 17/36/26
f 14/28/12 15/27/14 17/36/26
f 15/27/14 16/34/16 17/36/26
f 16/34/16 9/33/4 17/36/26
f 2/2/2 1/1/1 18/38/27 19/37/28
f 3/3/5 2/2/2 19/37/28 20/39/29
f 4/4/7 3/3/5 20/39/29 21/40/30
f 5/5/9 4/4/7 21/40/30 22/41/31
f 6/6/11 5/5/9 22/41/31 23/42/32
f 7/7/13 6/6/11 23/42/32 24/43/33
f 8/8/15 7/7/13 24/43/33 25/44/34
f 1/1/1 8/8/15 25/44/34 18/38/27
f 19/37/28 18/38/27 26/46/18 27/45/17
f 20/39/29 19/37/28 27/45/17 29/47/20
f 21/40/30 20/39/29 29/47/20 30/48/21
f 22/41/31 21/40/30 30/48/21 31/49/22
f 23/42/32 22/41/31 31/49/22 32/50/23
f 24/43/33 23/42/32 32/50/23 33/51/24
f 25/44/34 24/43/33 33/51/24 34/52/25
f 18/38/27 25/44/34 34/52/25 26/46/18
s 3
f 35/53/35 36/54/36 65/55/37 66/56/38
f 36/54/36 37/57/39 64/58/40 65/55/37
f 37/57/39 38/59/41 63/60/42 64/58/40
f 38/59/41 39/61/43 62/62/44 63/60/42
f 39/61/43 40/63/45 61/64/46 62/62/44
f 40/63/45 41/65/47 68/66/48 61/64/46
f 41/65/47 42/67/49 67/68/50 68/66/48
f 42/67/49 35/69/35 66/70/38 67/68/50
f 36/71/36 35/72/35 51/73/51
f 37/74/39 36/71/36 51/73/51
f 38/75/41 37/74/39 51/73/51
f 39/76/43 38/75/41 51/73/51
f 40/77/45 39/76/43 51/73/51
f 41/78/47 40/77/45 51/73/51
f 42/79/49 41/78/47 51/73/51
f 35/72/35 42/79/49 51/73/51
f 43/80/52 44/81/53 52/82/54
f 44/81/53 45/83/55 52/82/54
f 45/83/55 46/84/56 52/82/54
f 46/84/56 47/85/57 52/82/54
f 47/85/57 48/86/58 52/82/54
f 48/86/58 49/87/59 52/82/54
f 49/87/59 50/88/60 52/82/54
f 50/88/60 43/80/52 52/82/54
f 54/89/61 53/90/62 69/91/63 70/92/64
f 55/93/65 54/89/61 70/92/64 71/94/66
f 56/95/67 55/93/65 71/94/66 72/96/68
f 57/97/69 56/95/67 72/96/68 73/98/70
f 58/99/71 57/97/69 73/98/70 74/100/72
f 59/101/73 58/102/71 74/103/72 75/104/74
f 60/105/75 59/101/73 75/104/74 76/106/76
f 53/90/62 60/105/75 76/106/76 69/91/63
f 62/62/44 61/64/46 53/90/62 54/89/61
f 63/60/42 62/62/44 54/89/61 55/93/65
f 64/58/40 63/60/42 55/93/65 56/95/67
f 65/55/37 64/58/40 56/95/67 57/97/69
f 66/56/38 65/55/37 57/97/69 58/99/71
f 67/68/50 66/70/38 58/102/71 59/101/73
f 68/66/48 67/68/50 59/101/73 60/105/75
f 61/64/46 68/66/48 60/105/75 53/90/62
f 70/92/64 69/91/63 48/107/58 47/108/57
f 71/94/66 70/92/64 47/108/57 46/109/56
f 72/96/68 71/94/66 46/109/56 45/110/55
f 73/98/70 72/96/68 45/110/55 44/111/53
f 74/100/72 73/98/70 44/111/53 43/112/52
f 75/104/74 74/103/72 43/113/52 50/114/60
f 76/106/76 75/104/74 50/114/60 49/115/59
f 69/91/63 76/106/76 49/115/59 48/107/58
s 5
f 77/116/77 78/117/78 86/118/79 85/119/80
f 78/117/78 79/120/81 87/121/82 86/118/79
f 79/120/81 80/122/83 88/123/84 87/121/82
f 80/122/83 81/124/85 89/125/86 88/123/84
f 81/124/85 82/126/87 90/127/88 89/125/86
f 82/126/87 83/128/89 91/129/90 90/127/88
f 83/128/89 84/130/91 92/131/92 91/129/90
f 84/130/91 77/132/77 85/133/80 92/131/92
f 78/134/78 77/135/77 93/136/93
f 79/137/81 78/134/78 93/136/93
f 80/138/83 79/137/81 93/136/93
f 81/139/85 80/138/83 93/136/93
f 82/140/87 81/139/85 93/136/93
f 83/141/89 82/140/87 93/136/93
f 84/142/91 83/141/89 93/136/93
f 77/135/77 84/142/91 93/136/93
f 85/143/80 86/144/79 94/145/94
f 86/144/79 87/146/82 94/145/94
f 87/146/82 88/147/84 94/145/94
f 88/147/84 89/148/86 94/145/94
f 89/148/86 90/149/88 94/145/94
f 90/149/88 91/150/90 94/145/94
f 91/150/90 92/151/92 94/145/94
f 92/151/92 85/143/80 94/145/94
